<svg xmlns="http://www.w3.org/2000/svg" viewBox="0 0 370 350"><defs><style>.cls-1{isolation:isolate;}.cls-14,.cls-2{fill:#fff;}.cls-2{opacity:0.4;}.cls-3{fill:#337361;}.cls-4{fill:#e63d31;}.cls-5{fill:#d6aa75;}.cls-6{fill:#592f26;}.cls-7{fill:#fff2e3;}.cls-19,.cls-8{fill:#754c28;}.cls-13,.cls-15,.cls-18,.cls-8{opacity:0.2;}.cls-13,.cls-18,.cls-8,.cls-9{mix-blend-mode:multiply;}.cls-9{fill:#68634d;opacity:0.51;}.cls-10{fill:#723d2e;}.cls-11{fill:#7c4c1f;}.cls-12{fill:#929497;}.cls-13,.cls-15{fill:#231f20;}.cls-16{fill:#37b34a;}.cls-17{fill:#2d4c42;}.cls-20{fill:#f6921e;}.cls-21{fill:#ffdd15;}.cls-22,.cls-23{fill:#f05a28;}.cls-22{opacity:0.5;}.cls-23{opacity:0.72;}</style></defs><g class="cls-1"><g id="Layer_1" data-name="Layer 1"><circle class="cls-2" cx="185" cy="174.99999" r="166.46002"/><path class="cls-3" d="M318.88,174.99976a133.87557,133.87557,0,0,1-5.66,38.63c-1.06,3.52-2.26,6.99-3.59,10.38-.27.69-.55,1.38-.83,2.06a131.263,131.263,0,0,1-6.59,13.67,133.95594,133.95594,0,0,1-101.56,68.24,136.897,136.897,0,0,1-15.65.9,133.5768,133.5768,0,0,1-106-52.09,132.09521,132.09521,0,0,1-7.75-11.16q-2.76-4.425-5.17-9.07c-.43-.83-.85-1.67-1.27-2.51-.67-1.36-1.31-2.73-1.94-4.11-.39-.88-.78-1.77-1.16-2.66-.32-.76-.64-1.52-.95-2.29-.34-.84-.67-1.68-.99-2.53q-2.265-5.97006-3.96-12.2a133.18918,133.18918,0,0,1-3.58-17.97.27632.27632,0,0,1-.01-.09q-.38993-3-.64-6.04c-.1-1.14-.17-2.28-.24-3.42-.07-1.29-.13-2.59-.17-3.89-.03-1.28-.05-2.56006-.05-3.85,0-1.52.03-3.04.08-4.56q.195-6.21.97-12.27a133.69674,133.69674,0,0,1,131.33-117.04c.41-.01.81-.01,1.22-.01H185a134.17461,134.17461,0,0,1,29.59,3.29,132.30255,132.30255,0,0,1,24.5,8.11q4.77,2.09994,9.35,4.58c3.1,1.66,6.13,3.46,9.08,5.36a.1386.1386,0,0,1,.04.03c3.54,2.28,6.95,4.73,10.25,7.32.43.34.87.69,1.3,1.04.87.7,1.73,1.41,2.58,2.14q1.185,1.00506,2.34,2.04v.00994a133.75155,133.75155,0,0,1,44.85,99.96Z"/><path class="cls-4" d="M65.0748,231.82961c-.359,3.455-1.07732,9.45554-4.78459,11.00362-7.14316,3.0049-3.44535-9.45246-2.544-13.08937a92.69867,92.69867,0,0,1-7.06537,12.42455,27.66487,27.66487,0,0,1-4.989,5.82732c-1.45108,1.16436-5.20353,3.56586-6.85272,1.47422-1.6373-2.07655,1.13371-6.46494,2.26672-8.269A25.45083,25.45083,0,0,1,55.576,230.47269c-4.37538,1.16973-8.78163,2.23729-13.23973,3.0441a65.677,65.677,0,0,1-8.5583,1.07968c-2.2182.10525-5.51383.38885-7.3378-1.23133-5.146-4.57338,9.36106-7.64254,11.63008-8.12961,8.89374-1.90911,15.89642-1.22641,24.82808.05l.63326.0905c.62927-4.45508,2.24543-18.63824,8.57711-18.64267,8.23147.26707-1.70293,18.45624-6.0426,20.82279Z"/><path class="cls-5" d="M112.63764,250.04129c-28.5242,0-50.81127-20.96947-51.76562-21.8802l5.31926-5.5697-2.65963,2.78485,2.65662-2.78711c.21659.20531,21.95353,20.59495,48.08471,19.72407,14.11715-.461,27.12727-7.0377,38.669-19.54809l5.65994,5.22225c-13.00862,14.10023-27.859,21.5102-44.13794,22.02535C113.85409,250.03151,113.24192,250.04129,112.63764,250.04129Z"/><path class="cls-5" d="M266.518,250.04129q-.90923,0-1.82635-.02858c-16.27892-.51515-31.12932-7.92512-44.13794-22.02535l5.65994-5.22225c11.54175,12.51039,24.55187,19.08708,38.669,19.54809,26.14133.87765,47.86811-19.518,48.08471-19.72407l5.31625,5.572C317.32931,229.07182,295.03961,250.04129,266.518,250.04129Z"/><path class="cls-6" d="M200.65,290.32977v17.65a136.897,136.897,0,0,1-15.65.9,134.39509,134.39509,0,0,1-30.96-3.6v-14.95Z"/><polygon class="cls-7" points="200.653 238.278 199.789 294.253 159.013 289.953 161.519 236.565 200.653 238.278"/><polygon class="cls-8" points="170.817 245.848 165.876 290.246 160.806 289.647 165.572 244.829 170.817 245.848"/><polygon class="cls-9" points="170.685 244.008 170.423 259.573 178.625 248.084 184.611 260.242 187.833 246.856 188.656 247.094 184.884 262.764 178.904 250.616 176.903 291.856 176.053 291.807 178.062 250.387 169.525 262.346 169.833 243.991 170.685 244.008"/><path class="cls-9" d="M173.52,263.52979a2.66928,2.66928,0,0,0-2.64,2.7,3.02213,3.02213,0,0,0,.02.43,2.7086,2.7086,0,0,0,1.98,2.38995,2.31945,2.31945,0,0,0,.46.07,2.66931,2.66931,0,0,0,2.63995-2.7A2.71133,2.71133,0,0,0,173.52,263.52979Zm-.15,4.66a1.81341,1.81341,0,0,1-1.64-1.93,1.76863,1.76863,0,0,1,1.76-1.79,1.79753,1.79753,0,0,1,1.64,1.92A1.77747,1.77747,0,0,1,173.37,268.18976Z"/><path class="cls-9" d="M173.25,272.13977a2.66742,2.66742,0,0,0-2.63,2.7,2.69823,2.69823,0,0,0,2.46,2.89,2.66926,2.66926,0,0,0,2.63995-2.7A2.7128,2.7128,0,0,0,173.25,272.13977Zm-.14,4.66a1.80308,1.80308,0,0,1-1.64-1.92,1.70423,1.70423,0,1,1,3.39.12A1.763,1.763,0,0,1,173.11,276.79974Z"/><path class="cls-9" d="M172.96,281.68976a2.65406,2.65406,0,0,0-2.64,2.69,2.71287,2.71287,0,0,0,2.47,2.89,2.66937,2.66937,0,0,0,2.64-2.7A2.69713,2.69713,0,0,0,172.96,281.68976Zm-.14,4.65a1.80644,1.80644,0,0,1-1.64-1.93,1.76053,1.76053,0,0,1,1.75-1.79,1.86883,1.86883,0,0,1-.11,3.72Z"/><path class="cls-9" d="M200.03019,262.05454l-7.91633.25033-.12895,4.17065,8.3893.06247-.00613.93322-8.412-.06262-.23093,7.468a7.30466,7.30466,0,0,0,1.25862,3.25046c1.47668,2.06933,3.89029,2.9507,7.17278,2.62476l.07722.929a13.10339,13.10339,0,0,1-1.78588.06194,7.80759,7.80759,0,0,1-5.16144-1.9373,7.97069,7.97069,0,0,1-2.411-4.90358l.414-13.50427,8.71609-.27561Z"/><polygon class="cls-8" points="193.982 293.462 189.386 293.607 193.657 247.879 198.845 247.127 193.982 293.462"/><polygon class="cls-10" points="195.467 290.963 159.274 287.057 158.22 295.888 195.491 298.69 195.467 290.963"/><path class="cls-5" d="M216.17044,296.64955c-.0623,1.40936-.14015,2.74858-.22578,3.99446l-6.29913-.52171-16.28891-1.3626.59177-9.33576.49054-7.70844,2.77192-43.56425,19.02189-1.01226S217.1749,275.323,216.17044,296.64955Z"/><path class="cls-11" d="M197.67,281.68976a1.45083,1.45083,0,0,0-.22-.03.035.035,0,0,1-.02-.01h-.07c-.01-.01-.01-.01-.02-.01a.516.516,0,0,1-.11005-.02c-.09-.01-.19-.03-.29-.05-.05-.01-.09-.01-.14-.02l-.11,2.03c.28.23.57.46.86.68l.14-2.57Zm0,0a1.45083,1.45083,0,0,0-.22-.03.035.035,0,0,1-.02-.01h-.07c-.01-.01-.01-.01-.02-.01a.516.516,0,0,1-.11005-.02c-.09-.01-.19-.03-.29-.05-.05-.01-.09-.01-.14-.02l-.11,2.03c.28.23.57.46.86.68l.14-2.57Zm0,0a1.45083,1.45083,0,0,0-.22-.03.035.035,0,0,1-.02-.01h-.07c-.01-.01-.01-.01-.02-.01a.516.516,0,0,1-.11005-.02c-.09-.01-.19-.03-.29-.05-.05-.01-.09-.01-.14-.02l-.11,2.03c.28.23.57.46.86.68l.14-2.57Zm-.73-.12c-.05-.01-.09-.01-.14-.02l-.11,2.03c.28.23.57.46.86.68l.14-2.57v-.01A5.8769,5.8769,0,0,1,196.94,281.56976Zm16.3-1.42-13.22-.78-3.1-.18-.07,1.42v.01l-.05.92v.01l-.11,2.03-.35,6.75-.04.9-.14,2.64-.04.79,4.53.12.6.01995h.01l12.2.33h.02l.45.01Zm-1.36,14.04-6.88-.18-.44-.02-3.91-.1-.73-.02h-.12l-2.74-.07.1-1.92v-.01l.08-1.54.21-4.21v-.01l.03-.44.07-1.4v-.01l.14-2.57v-.01l.04-.92v-.01l.04-.62,2.23.13,12.38.73.24,5.13v.01l.02.42v.01l.36,7.66-1.11-.03C211.88,294.19977,211.88,294.18976,211.88,294.18976Zm-14.21-12.5a1.45083,1.45083,0,0,0-.22-.03.035.035,0,0,1-.02-.01h-.07c-.01-.01-.01-.01-.02-.01a.516.516,0,0,1-.11005-.02c-.09-.01-.19-.03-.29-.05-.05-.01-.09-.01-.14-.02l-.11,2.03c.28.23.57.46.86.68l.14-2.57Zm0,0a1.45083,1.45083,0,0,0-.22-.03.035.035,0,0,1-.02-.01h-.07c-.01-.01-.01-.01-.02-.01a.516.516,0,0,1-.11005-.02c-.09-.01-.19-.03-.29-.05-.05-.01-.09-.01-.14-.02l-.11,2.03c.28.23.57.46.86.68l.14-2.57Zm0,0a1.45083,1.45083,0,0,0-.22-.03.035.035,0,0,1-.02-.01h-.07c-.01-.01-.01-.01-.02-.01a.516.516,0,0,1-.11005-.02c-.09-.01-.19-.03-.29-.05-.05-.01-.09-.01-.14-.02l-.11,2.03c.28.23.57.46.86.68l.14-2.57Z"/><path class="cls-11" d="M204.85,281.20978a1.5118,1.5118,0,0,0-1.12.42,1.80256,1.80256,0,0,0-.56,1.27,1.69771,1.69771,0,0,0,1.57,1.81c.01.01.04.01.05.01a1.52378,1.52378,0,0,0,1.06-.43006,1.80181,1.80181,0,0,0,.56-1.26995A1.69661,1.69661,0,0,0,204.85,281.20978Zm.7,2.75a1.108,1.108,0,0,1-.8.31,1.25521,1.25521,0,0,1-1.13-1.36,1.33146,1.33146,0,0,1,.42-.95,1.08508,1.08508,0,0,1,.79-.31,1.25925,1.25925,0,0,1,1.13995,1.35A1.377,1.377,0,0,1,205.55,283.95978Z"/><polygon class="cls-11" points="204.366 263.001 195.964 249.362 196.344 249.129 204.38 262.173 216.21 244.364 216.582 244.611 204.366 263.001"/><path class="cls-11" d="M213.00877,286.5835c-.44634-.09325-9.71651-.33541-15.83859-.47605l.01053-.44521c15.89011.364,15.97772.46627,16.06233.56479l-.16921.14514Z"/><rect class="cls-11" x="204.55421" y="285.96983" width="0.44597" height="8.47112"/><path class="cls-5" d="M150.12907,231.64812s-8.06373,42.89518-10.20347,62.91024l21.8216,1.71406,6.88739-59.67508Z"/><path class="cls-11" d="M159.64,276.61975l-14.01-2.12-3.28,14.58,11.69,2.15,4.63.85,1.25.23.25-1.98.02-.25v-.01l.36-2.87v-.01l1.26-10.24Zm.5,6.57-.05.45-.43006,3.46-.35,2.88-.05.35-.11.93-.37-.07-4.69-.86-2.34-.43-.44-.08-7.89-1.45,1.68-7.46.09-.41v-.01l1.12-4.98,13.28,2.01H159.6l1.22.18Z"/><path class="cls-11" d="M153.69,277.27979a1.51065,1.51065,0,0,0-1.16.28,1.80437,1.80437,0,0,0,.63995,3.19,2.27439,2.27439,0,0,0,.26.02,1.556,1.556,0,0,0,.9-.29,1.79261,1.79261,0,0,0,.7-1.19A1.752,1.752,0,0,0,153.69,277.27979Zm.38,2.82995a1.05343,1.05343,0,0,1-.82.2,1.29977,1.29977,0,0,1-.98-1.5,1.32022,1.32022,0,0,1,.52-.89,1.06706,1.06706,0,0,1,.64-.21,1.0858,1.0858,0,0,1,.18.01,1.359,1.359,0,0,1,.46,2.38995Z"/><polygon class="cls-11" points="157.3 259.507 148.494 238.921 148.903 238.745 157.437 258.695 167.584 247.56 167.914 247.86 157.3 259.507"/><path class="cls-11" d="M160.36024,283.69036c-6.03447-1.1341-15.17792-2.8217-15.63366-2.82321l.00075-.19478-.15868-.2c.10641-.085.20268-.1647,15.87356,2.78033Z"/><rect class="cls-11" x="147.96591" y="285.91147" width="8.44582" height="0.44611" transform="translate(-156.19605 385.79986) rotate(-79.9025)"/><polygon class="cls-12" points="169.456 297.52 182.489 298.979 183.418 289.021 170.385 287.563 169.456 297.52"/><path class="cls-13" d="M179.14831,296.09075c1.07735.81036,2.20887,1.65877,3.37581,2.51252l-.035.37531-13.03287-1.45828.79948-8.57126C173.12158,291.45181,176.10766,293.80364,179.14831,296.09075Z"/><path class="cls-14" d="M268.10781,184.911c-.50973-2.041-3.453-52.15973-3.453-52.15973L147.8691,97.60357s-34.8377,30.0565-35.22348,32.93487-4.3836,53.05312-4.153,54.79566,29.66314,29.331,29.66314,29.331L215.1593,228.894l34.20852-19.74691Z"/><ellipse class="cls-4" cx="192.96049" cy="152.4421" rx="9.89451" ry="6.65321" transform="translate(-13.87753 285.44729) rotate(-71.05199)"/><path class="cls-10" d="M216.17044,296.64955c-.0623,1.40936-.14015,2.74858-.22578,3.99446l-6.29913-.52171a137.99822,137.99822,0,0,1-15.69714-10.69836c-27.91388-21.92621-39.32076-48.01028-39.90473-49.36509l5.73069-2.45261c.11682.26462,4.47712,10.16106,14.17885,22.68917a141.428,141.428,0,0,0,20.48573,21.42009A131.1364,131.1364,0,0,0,216.17044,296.64955Z"/><path class="cls-4" d="M282.27,157.94977a30.96219,30.96219,0,0,1,5.32,6.77,145.18155,145.18155,0,0,1,9.03,17.88,45.91447,45.91447,0,0,0-3.93-15.92,92.81112,92.81112,0,0,0-9.64-16.93c-3.07-4.34-5.45-7.04-5.45-7.04.24-.26.47-.51.7-.75.58-.63,1.14-1.24,1.69-1.86l.01-.01a.52374.52374,0,0,0,.1-.11q-2.92494-.42-5.87-.9-3.105-.51-6.21-1.07h-.01c-1.03-.19-2.05-.38-3.08-.57q-2.61-.495-5.2-1.03h-.01c-7.87994-1.6-15.71-3.45-23.5-5.49-7.79-2.05-15.54-4.29-23.22-6.67a70.62961,70.62961,0,0,1,.05,7.97c-.01.18-.02.37-.03.55v.01c-.06,1.07995-.15,2.15-.26,3.21-.2,1.96-.49,3.88-.86,5.74a48.91747,48.91747,0,0,1-1.95,7.09c-6.26,17.5-23.08,27.48-37.56,22.29s-21.13-23.57995-14.85-41.07995c.48-1.36005,1.06-2.74006,1.7-4.13a62.24743,62.24743,0,0,1,4.95-8.55v-.01c.36-.52.73-1.05,1.11-1.56.83-1.14,1.69-2.26,2.59-3.36005h.01v-.01c.93-1.14,1.91-2.25,2.91-3.32a120.48378,120.48378,0,0,1-18.01-10h-.01c-.01,0-.01-.01-.02-.02-1.93-1.32-3.82-2.72-5.65-4.19a44.80456,44.80456,0,0,1-8.02,1.15H139.09a38.99485,38.99485,0,0,1-10.72-.94l-3.13,7.3-.53,1.25c-.51.03-1.01.08-1.51.13a.27668.27668,0,0,0-.09.01,1.73164,1.73164,0,0,0-.32.03c-.28.03-.57.06-.85.1a3.11989,3.11989,0,0,1-.32.04c-.53.08-1.06.16-1.58.24-.17.04-.35.06-.52.09-.01,0-.02.00994-.03.00994-.2.04-.39.07-.58.11005-.11.02-.22.04-.32995.07-.41.07995-.82.17-1.22.26-.27.06-.53.12-.79.19a.359.359,0,0,0-.11.02c-.12.03-.24.06-.36.1a46.789,46.789,0,0,0-4.96,1.57c-.26.1-.51.19-.75.29l-.39.15c-.23.1-.46.19-.68.29-.56.23-1.09.47-1.6.71-.08.04-.15.07-.22.11005-.12.05-.24.11-.36.17-.23.11-.45.21-.67.33-.28.12994-.55.27-.82.42-.29.15-.57.31-.85.46a35.60908,35.60908,0,0,0-5.56,3.71,9.49158,9.49158,0,0,1,3.76-.22,51.41893,51.41893,0,0,1,7.52,1.4,53.11633,53.11633,0,0,0-16.29,8.8c-10.62,8.44-14.27,18.19-14.27,18.19a12.96043,12.96043,0,0,1,4.24-2.74,11.99852,11.99852,0,0,1,5-.87c-18.53,23.76-1.2,37.3-1.2,37.3-.53-1.59,1.1-9.00995,1.1-9.00995.72,21.62,14.73,40.78,15.17,41.37995-.61005-2.75.15-15.82.15-15.82.57,14.68,14.07,28.82,14.49,29.25-1.51-2.34-1.46-15.37006-1.46-15.37006,4.12,12.29,10.37,19.77,14.83,23.86005.31995.29.61.54.9.8h-.02a65.38505,65.38505,0,0,0,5.63,4.48,68.73472,68.73472,0,0,0,7.19,4.49c.84.45,1.68.89,2.53,1.3.27.13995.53.27.81.4h.01c.2.1.4.19.6.29h.01c1.9.87994,3.83,1.69,5.78,2.41q2.67.99,5.39,1.78c1.08.31995,2.17.62,3.26.9.34.08.68.17,1.02.25.69.16,1.36.32,2.05.46.78.17,1.55.32995,2.33.48h.01c.28.06.56.11.84.16h.01q3.81.68994,7.56,1.09c.26.03.52.05.77.08h.01c2.8.28,5.56006.45,8.27.54.3,0,.59.01.88.02,1.83.04,3.63.04,5.4.01.88-.02,1.74-.04,2.59-.07h.01c.1,0,.2-.01.3-.01a.22009.22009,0,0,0,.08-.01c.72-.03,1.43-.06,2.13-.1h.01c.63-.03,1.23-.07,1.84-.11005,4.96-.34,9.56-.9,13.65-1.55.21-.03.4-.06.6-.09.58-.09,1.13-.19,1.69-.29h.01a134.51584,134.51584,0,0,0,15.84-3.63995,53.64276,53.64276,0,0,1-15.75,10.23,45.06479,45.06479,0,0,1-7.5,2.55c2.62-.01,5.12-.11,7.53-.29,13.56-1.02,23.83-4.68,31.48-9.06a56.69177,56.69177,0,0,0,8.21-5.66l.01-.01c8.12-6.74,11.26-13.28,11.46-13.69-.87,3.85-3.74,9.78-6.26,14.53v.01c-1.85,3.5-3.51,6.34-4.02,7.22a.0098.0098,0,0,0-.01.01c-.07995.14-.13995.23-.15.26.12-.07.24-.15.36-.23a.0098.0098,0,0,0,.01-.01,39.11984,39.11984,0,0,0,8.19-6.99l.01-.01c13.49-14.95,18.56-39.47,19.32995-43.53,2.23,6.21-.88995,18.87-1.03,19.46,14.4-16.04,5.66-42.87.76-54.57C283.41,160.10974,282.27,157.94977,282.27,157.94977Zm-27.31-3.29c4.75,4.35,5.26,14.69,5.26,14.69l-.5,4.37995c-3.92-26.29-20.06995-15.58-21.02-14.93,4.19-3.78,7.55-5.53,10.27-5.94A6.961,6.961,0,0,1,254.96,154.65979Zm-49.19,54.01c29.72-10.93,41.88-44.48,41.99-44.81995a1.01846,1.01846,0,0,1,1.92.68c-.12.35-12.58,34.75994-43.18,46.04a57.21916,57.21916,0,0,1-11.16,2.89c-16.97,2.63-35.9-2.02-56.44-13.92005a1.01594,1.01594,0,0,1-.37-1.38995,1.02718,1.02718,0,0,1,1.38995-.37C164.52,212.03973,186.68,215.70978,205.77,208.66974Zm-82.52-63.41c-.23-7.82,12.06.05,23.05,7.38,10.98,7.32-18.26,10.12-18.26,10.12S123.48,153.06976,123.25,145.25977Zm25.48-15.27c-1.9,5.13-6.23,8.25-9.67,6.98-3.45-1.28-4.7-6.46-2.81-11.59a13.18616,13.18616,0,0,1,3.54-5.32c1.92-1.68,4.17-2.38,6.13-1.66a5.92062,5.92062,0,0,1,3.45,4.54A12.902,12.902,0,0,1,148.73,129.98975Zm135.74,68.07c.06006-.38.08-.6.08-.6.12.2.21.45.32.67C284.76,198.10974,284.63,198.07977,284.47,198.05975Z"/><path class="cls-13" d="M288.7282,140.0089s-124.84109,5.05638-160.33967-58.60507l153.19678,46.62849S287.62676,135.36106,288.7282,140.0089Z"/><path class="cls-5" d="M288.41228,127.50586q-.5777,1.50468-1.21245,2.96241c-.55321,1.28882-1.13272,2.55929-1.75305,3.80575a80.12586,80.12586,0,0,1-4.87689,8.55315L133.577,86.39176a80.12521,80.12521,0,0,1,2.1001-9.61925c.37321-1.34134.79282-2.6732,1.24425-4.0011q.50391-1.508,1.08158-3.01266a80.55744,80.55744,0,0,1,151.94624,53.37466C289.4794,124.59608,288.97044,126.05207,288.41228,127.50586Z"/><path class="cls-10" d="M161.68347,72.8894l-.73926-.24367a77.32856,77.32856,0,0,1,16.70458-26.05409c11.2507-11.68839,31.56964-25.27046,64.45237-23.552l-.04061.77763c-32.57476-1.7034-52.69065,11.72975-63.827,23.28955A76.5291,76.5291,0,0,0,161.68347,72.8894Z"/><circle class="cls-5" cx="242.08087" cy="23.42839" r="8.29197"/><path class="cls-15" d="M266.84052,72.49589c2.73362-1.83256,5.42991-3.99279,6.7813-6.99357,3.15881-7.0142-3.77986-12.14954-10.10588-8.71567a19.97793,19.97793,0,0,0-6.16345,5.97943c1.6375-2.51985-.398-6.2489-3.32078-6.9477s-6.00574,1.00155-7.788,3.42123c-1.78217,2.41968-2.52233,5.43329-3.1369,8.37495-.14956-2.05287-.509-4.44868-2.31829-5.43a4.05715,4.05715,0,0,0-4.18076.493,9.28358,9.28358,0,0,0-2.674,3.48844c-3.65521,7.24908-4.84256,19.04647.89738,25.67642-2.58908,2.713-5.0332,5.33125-7.24955,7.70755a.87133.87133,0,1,0,1.27473,1.18824c2.20178-2.3606,4.62945-4.96115,7.19982-7.65509.13687.12127.27582.24066.41842.35694,6.638,5.41153,19.40257,5.54573,27.03534,2.869a11.79583,11.79583,0,0,0,4.931-2.93789,5.59851,5.59851,0,0,0,1.41146-5.349,3.80417,3.80417,0,0,0-4.173-2.5597,13.71026,13.71026,0,0,0,7.11968-4.829c1.21983-1.60032,2.08478-3.78019,1.23134-5.60245C272.88124,72.57725,269.54406,72.3153,266.84052,72.49589Z"/><path class="cls-16" d="M235.42269,91.45063q-.27406-.12951-.54025-.27014c-8.37544-4.4271-10.39879-17.17552-8.476-25.59562a9.28307,9.28307,0,0,1,1.758-4.02847,4.05711,4.05711,0,0,1,3.94-1.48257c1.992.51811,2.91631,2.75748,3.55447,4.71433-.10988-3.00315-.11506-6.10633,1.0339-8.88317s3.73341-5.16781,6.73848-5.19137,5.87652,3.10758,4.892,5.94691A19.97848,19.97848,0,0,1,252.8705,49.376c5.31628-4.85255,13.28514-1.53379,11.90321,6.03373-.59122,3.23749-2.68986,5.982-4.90341,8.41741,2.58109-.82452,5.88353-1.37165,7.58836.7344,1.26605,1.564.9499,3.8878.1501,5.73424a13.71119,13.71119,0,0,1-6.11181,6.60852,3.72418,3.72418,0,0,1,5.0257,1.27157,5.59854,5.59854,0,0,1-.08561,5.53141,11.79664,11.79664,0,0,1-4.08116,4.03605C255.58926,92.17466,243.166,95.10971,235.42269,91.45063Z"/><path class="cls-17" d="M229.01771,100.81234a.862.862,0,0,1-.423-.11055.87124.87124,0,0,1-.3373-1.18523c5.822-10.45428,13.79527-24.77335,22.09793-35.28178a.87115.87115,0,1,1,1.36723,1.07995c-8.21542,10.39938-16.14957,24.647-21.943,35.05014A.87135.87135,0,0,1,229.01771,100.81234Z"/><path class="cls-17" d="M239.75551,82.91952a.87145.87145,0,0,1-.1538-1.729l12.09075-2.18246a.87122.87122,0,1,1,.30984,1.71468l-12.09074,2.18246A.852.852,0,0,1,239.75551,82.91952Z"/><path class="cls-17" d="M243.75154,75.67876a.61694.61694,0,0,1-.0643-.003.87056.87056,0,0,1-.80545-.93254l.83515-11.40187a.8552.8552,0,0,1,.93255-.80469.87056.87056,0,0,1,.80545.93254l-.83516,11.40187A.87161.87161,0,0,1,243.75154,75.67876Z"/><path class="cls-10" d="M288.41228,127.50586q-1.33956,3.489-2.9655,6.76816L135.67711,76.77251q.98991-3.52326,2.32583-7.01376a80.34193,80.34193,0,0,1,4.12526-9.05023l147.821,62.42489C289.4794,124.59608,288.97044,126.05207,288.41228,127.50586Z"/><path class="cls-8" d="M284.47145,163.52743l-29.51029-8.86388-5.99142-1.802L211.8971,141.72581l-52.65183-15.82552-9.88041-2.96488-9.57235-2.87246L104.7991,109.54334a47.88109,47.88109,0,0,1,19.9071-5.90671l3.66569-8.54811,39.52932,17.32728,45.151,19.79937Z"/><path class="cls-5" d="M311.86412,174.04176,89.434,88.64349c10.94911-9.2494,27.61318-14.63656,47.4874-15.87208.02458.00109.052-.00508.07654-.00391l150.14767,57.64664c.019.01555.03527.03849.05426.05413C301.14082,144.68656,309.91811,159.84149,311.86412,174.04176Z"/><path class="cls-8" d="M272.60446,158.96868,89.434,88.64349c10.94911-9.2494,27.61318-14.63656,47.4874-15.87208q.50391-1.508,1.08158-3.01266a80.45961,80.45961,0,0,1,60.29542-50.29654c13.02126,12.13876,30.59347,38.21,8.45977,80.08854,0,0,1.73168.573,4.64487,1.78332,9.26758,3.84158,30.53107,14.10714,46.41506,32.75792A82.35037,82.35037,0,0,1,272.60446,158.96868Z"/><path class="cls-10" d="M63.22342,207.8584q-2.14669-5.67855-4.52127-11.24931c-3.57737-8.39734-7.62929-16.75287-10.10457-25.47939l-10.32273,3.34179Q44.944,193.0455,51.61316,211.617q1.34357,3.77975,2.70777,7.55281c.54371,1.50315,1.07709,3.0095,1.61377,4.52621,1.46889,4.18466,2.8895,8.39652,4.038,12.68491q.32952,1.22976.62807,2.46942c.94646,3.80568,1.71045,7.64743,2.36766,11.51231,1.83569,10.64522,2.9896,21.44255,5.38623,31.98593a6.34947,6.34947,0,0,0,1.34073,3.11837c3.26934,3.43043,13.49889-.81788,13.49889-.81788.76707-11.17925-2.48112-22.20086-5.69406-32.937-.82157-2.74949-1.65013-5.48529-2.482-8.23131Q73.59,238.75168,72.12054,234.036c-1.4712-4.72086-2.98368-9.42821-4.57558-14.09856C66.16426,215.88415,64.73518,211.85782,63.22342,207.8584Z"/><path class="cls-7" d="M72.12054,234.036q1.47471,4.714,2.89763,9.44477l-12.04978,6.88191c-.65721-3.86488-1.4212-7.70663-2.36766-11.51231q-.2985-1.2396-.62807-2.46942c-1.14846-4.28839-2.56907-8.50025-4.038-12.68491-.53668-1.51671-1.07006-3.02306-1.61377-4.52621q-1.35909-3.77472-2.70777-7.55281l11.61026-3.75861c1.51176,3.99942,2.94084,8.02575,4.32154,12.079C69.13686,224.60778,70.64934,229.31513,72.12054,234.036Z"/><path class="cls-8" d="M72.12054,234.036l-11.51981,4.81437q-.2985-1.2396-.62807-2.46942c-1.14846-4.28839-2.56907-8.50025-4.038-12.68491l11.61026-3.7586C69.13686,224.60778,70.64934,229.31513,72.12054,234.036Z"/><g class="cls-18"><path class="cls-19" d="M70.15022,274.91866c-3.01375-4.50009-3.24764-9.9928-3.81219-15.20715-.626-5.78206-1.37546-11.56186-2.34406-17.297a155.95923,155.95923,0,0,0-10.27726-34.80084c-4.77788-11.33925-9.41649-22.38229-10.99824-34.58067l-4.4436,1.43849Q44.944,193.04556,51.61317,211.617q1.34355,3.77963,2.70777,7.55277c.54373,1.50316,1.07708,3.00952,1.61376,4.52622,1.4689,4.1847,2.88953,8.39657,4.038,12.685q.32953,1.22961.6281,2.46936c.94646,3.80576,1.71045,7.64743,2.36765,11.51232,1.83566,10.64521,2.98959,21.44261,5.38624,31.986a6.34913,6.34913,0,0,0,1.34072,3.11829c3.26932,3.43039,13.49887-.81785,13.49887-.81785.074-1.079.10012-2.156.103-3.232C78.03145,281.20328,73.10245,279.32691,70.15022,274.91866Z"/></g><path class="cls-20" d="M41.79176,191.58342S13.07389,187.63523,9.14892,164.8148c0,0,7.89527-2.33288,13.61469,6.29964,0,0-8.0682-20.58687-3.69624-31.81709,0,0,6.425,8.62676,9.2222,12.18193-3.01805-3.83681-.25691-8.97922.50958-13.04027a20.89956,20.89956,0,0,0,.06148-6.94837c-.22034-1.47185-.9407-6.30641-2.48376-7.05126.00232.00112,14.1076,6.81043,16.20126,20.63068a9.372,9.372,0,0,1,.80135-3.91374c.6702-1.89642,1.92713-3.44874,2.826-5.21893a10.44538,10.44538,0,0,0,.82273-5.49449,25.85647,25.85647,0,0,0-.79891-4.84615s21.948,21.001,16.07493,34.94782c0,0,3.98375.941,6.13814-1.09485,0,0,8.71782,26.92919-17.56926,33.19439Z"/><path class="cls-21" d="M56.06467,164.11856a13.91713,13.91713,0,0,1,.58772,2.76817c.025.28889.043.59136.05759.88361l.52231,12.69225.35034,8.35043s-5.81577,6.87421-15.79087,2.7704l-4.12288-6.45528-6.04536-9.46506a12.27341,12.27341,0,0,1-.89975-1.65044,13.65706,13.65706,0,0,1,1.89429-14.36554,13.65366,13.65366,0,0,1,15.41-4.01768A13.68028,13.68028,0,0,1,56.06467,164.11856Z"/><path class="cls-20" d="M44.7429,187.69471c-1.70527.25617-3.39076.458-5.05439.5936l2.10325,3.29511c9.97178,4.10475,15.78545-2.77422,15.78545-2.77422l-.19786-4.78938A48.57066,48.57066,0,0,1,44.7429,187.69471Z"/><path class="cls-22" d="M56.65239,166.88673c.025.28889.043.59136.05759.88361l.52231,12.69225c-5.2954,2.34242-12.45367,4.71694-19.56341,4.66555l-6.04536-9.46506a12.27341,12.27341,0,0,1-.89975-1.65044A33.47355,33.47355,0,0,0,56.65239,166.88673Z"/><path class="cls-23" d="M48.028,155.62942c-6.42262,5.917-12.20366,5.20711-15.41,4.01768a13.65366,13.65366,0,0,1,15.41-4.01768Z"/><path class="cls-20" d="M15.48758,150.01365s-10.88523-4.70006-2.40133-11.91923C13.08625,138.09442,11.179,144.77159,15.48758,150.01365Z"/><path class="cls-20" d="M46.25633,119.36978s10.17122-1.56139,7.72273,10.48508A15.85834,15.85834,0,0,0,46.25633,119.36978Z"/><path class="cls-20" d="M70.57767,184.0176s9.02147-2.41132,3.8348-9.38863C74.41247,174.629,74.24414,180.79386,70.57767,184.0176Z"/><path class="cls-4" d="M314.08083,231.82961c.359,3.455,1.07732,9.45554,4.78459,11.00362,7.14316,3.0049,3.44535-9.45246,2.544-13.08937a92.69867,92.69867,0,0,0,7.06537,12.42455,27.66491,27.66491,0,0,0,4.989,5.82732c1.45107,1.16436,5.20352,3.56586,6.85271,1.47422,1.6373-2.07655-1.13371-6.46494-2.26672-8.269a25.45083,25.45083,0,0,0-14.47007-10.72823c4.37538,1.16973,8.78163,2.23729,13.23973,3.0441a65.67721,65.67721,0,0,0,8.5583,1.07968c2.2182.10525,5.51383.38885,7.3378-1.23133,5.146-4.57338-9.36106-7.64254-11.63008-8.12961-8.89374-1.90911-15.89642-1.22641-24.82808.05l-.63326.0905c-.62926-4.45508-2.24543-18.63824-8.57711-18.64267-8.23147.26707,1.70293,18.45624,6.0426,20.82279Z"/></g></g></svg>